<?xml version="1.0" encoding="iso-8859-1"?>
<!-- Generator: Adobe Illustrator 19.0.0, SVG Export Plug-In . SVG Version: 6.00 Build 0)  -->
<svg version="1.1" id="Capa_1" xmlns="http://www.w3.org/2000/svg" xmlns:xlink="http://www.w3.org/1999/xlink" x="0px" y="0px"
	 viewBox="0 0 496 496" style="enable-background:new 0 0 496 496;" xml:space="preserve">
<path style="fill:#9c27b033;" d="M264,96V80c0-18.464,7.008-35.256,18.44-48H80v96h191.576C266.768,118.352,264,107.512,264,96z"/>
<g>
	<path style="fill:#9c27b0;" d="M456,128h-46.728c4.304-9.808,6.728-20.624,6.728-32V80c0-44.112-35.888-80-80-80H48v128h-8
		c-22.056,0-40,17.944-40,40v240c0,22.056,17.944,40,40,40h88v32H96v16h32h240h32v-16h-32v-32h88c22.056,0,40-17.944,40-40V168
		C496,145.944,478.056,128,456,128z M456,144c13.232,0,24,10.768,24,24v82.112l-6.264-22.56
		c-7.528-27.128-30.368-47.48-58.176-51.848l-39.936-6.288l0.168-4.112c9.392-5.416,17.56-12.68,24.056-21.304L456,144L456,144z
		 M438.56,272l-6.712-33.568l-15.688,3.144L422.24,272h-55.68l-6.064-30.32l8.016-12.016l11.976,4.672l18.04-45.112l14.544,2.288
		c21.624,3.4,39.392,19.224,45.24,40.32L469.48,272H438.56z M240.16,238.432L233.44,272h-30.856l11.184-39.384
		c5.816-20.432,23.064-36.056,43.96-39.816l16.016-2.88l17.816,44.536l11.88-4.872l8.064,12.088L305.44,272h-55.68l6.088-30.432
		L240.16,238.432z M302.024,184.84l22.136,18.96l-23.736,9.736l-10.6-26.504L302.024,184.84z M347.72,232h-23.44l-5.728-8.6
		l16.544-6.784l18.16,7.088L347.72,232z M371.512,213.664l-26.104-10.192l23.912-18.84l12.992,2.048L371.512,213.664z
		 M334.56,191.648L312,172.32v-0.008c7.584,2.384,15.64,3.688,24,3.688c7.848,0,15.424-1.184,22.6-3.304L334.56,191.648z
		 M326.56,248h18.888l4.8,24H321.76L326.56,248z M400,80v16c0,35.288-28.712,64-64,64s-64-28.712-64-64V80c0-35.288,28.712-64,64-64
		S400,44.712,400,80z M64,16h224.208C268.704,30.6,256,53.816,256,80v16c0,29.528,16.128,55.312,40,69.176v4.496l-41.096,7.384
		c-26.864,4.832-49.056,24.92-56.52,51.184L181.416,288H304v48H64V16z M40,144h8v208h272v-64h160v96H16V168
		C16,154.768,26.768,144,40,144z M352,480H144v-32h208V480z M456,432h-88H128H40c-13.232,0-24-10.768-24-24v-8h464v8
		C480,421.232,469.232,432,456,432z"/>
	<rect x="80" y="144" style="fill:#9c27b0;" width="16" height="16"/>
	<rect x="112" y="144" style="fill:#9c27b0;" width="56" height="16"/>
	<rect x="80" y="176" style="fill:#9c27b0;" width="88" height="16"/>
	<rect x="80" y="208" style="fill:#9c27b0;" width="88" height="16"/>
	<rect x="80" y="240" style="fill:#9c27b0;" width="88" height="16"/>
	<rect x="272" y="304" style="fill:#9c27b0;" width="16" height="16"/>
	<rect x="80" y="304" style="fill:#9c27b0;" width="176" height="16"/>
	<rect x="80" y="272" style="fill:#9c27b0;" width="88" height="16"/>
</g>
<g>
</g>
<g>
</g>
<g>
</g>
<g>
</g>
<g>
</g>
<g>
</g>
<g>
</g>
<g>
</g>
<g>
</g>
<g>
</g>
<g>
</g>
<g>
</g>
<g>
</g>
<g>
</g>
<g>
</g>
</svg>
